<?xml version="1.0" standalone="no"?>
<!DOCTYPE svg PUBLIC "-//W3C//DTD SVG 20010904//EN"
 "http://www.w3.org/TR/2001/REC-SVG-20010904/DTD/svg10.dtd">
<svg version="1.0" xmlns="http://www.w3.org/2000/svg"
 width="15.000000pt" height="15.000000pt" viewBox="0 0 130.000000 130.000000"
 preserveAspectRatio="xMidYMid meet">

<g transform="translate(0.000000,130.000000) scale(0.100000,-0.100000)"
fill="#000000" stroke="none">
<path d="M577 1100 c-178 -32 -322 -180 -350 -363 -47 -302 237 -561 529 -483
104 27 205 100 259 186 75 118 86 288 28 413 -83 177 -278 280 -466 247z m-10
-233 l85 -83 84 83 c94 93 124 104 169 58 44 -43 34 -68 -60 -164 l-85 -87 81
-79 c82 -82 96 -107 85 -150 -8 -30 -59 -59 -89 -49 -12 3 -59 43 -104 87
l-83 82 -82 -81 c-46 -45 -91 -84 -101 -87 -45 -16 -105 41 -93 88 4 14 42 62
86 107 l80 82 -86 88 c-81 82 -86 90 -80 120 8 41 39 68 78 68 25 0 47 -16
115 -83z"/>
</g>
</svg>
