<svg width="24" height="24" viewBox="0 0 24 24" fill="none" xmlns="http://www.w3.org/2000/svg">
<path d="M17.5199 10.8532L17.8614 11.1946H17.3785H4.20852C3.76897 11.1946 3.40852 11.5551 3.40852 11.9946C3.40852 12.4342 3.76897 12.7946 4.20852 12.7946H17.3785H17.8602L17.5202 13.1358L14.6402 16.0258L14.6399 16.026C14.328 16.3379 14.328 16.8413 14.6399 17.1532C14.9518 17.4651 15.4552 17.4651 15.7671 17.1532L20.3571 12.5632C20.669 12.2513 20.669 11.7479 20.3571 11.436L15.7671 6.84603C15.4552 6.53414 14.9518 6.53414 14.6399 6.84603C14.328 7.15793 14.328 7.66129 14.6399 7.97319L17.5199 10.8532Z" fill="black" stroke="white" stroke-width="0.4"/>
</svg>
