<svg width="20" height="20" viewBox="0 0 20 20" fill="none" xmlns="http://www.w3.org/2000/svg">
<path d="M16.1259 3.78593C14.0147 2.35791 11.4077 3.02432 10.0002 4.6586C8.59276 3.02432 5.98576 2.34998 3.87457 3.78593C2.75501 4.54753 2.05128 5.83274 2.00329 7.18935C1.89134 10.2675 4.64228 12.7348 8.84067 16.519L8.92063 16.5904C9.5284 17.1378 10.464 17.1378 11.0718 16.5825L11.1598 16.5032C15.3582 12.7269 18.1011 10.2596 17.9971 7.18142C17.9492 5.83274 17.2454 4.54753 16.1259 3.78593ZM10.0802 15.337L10.0002 15.4163L9.92025 15.337C6.11371 11.9177 3.60268 9.65664 3.60268 7.36389C3.60268 5.77721 4.80222 4.5872 6.4016 4.5872C7.63313 4.5872 8.83267 5.37261 9.25651 6.45948H10.7519C11.1678 5.37261 12.3673 4.5872 13.5988 4.5872C15.1982 4.5872 16.3978 5.77721 16.3978 7.36389C16.3978 9.65664 13.8867 11.9177 10.0802 15.337Z" fill="#FF6854"/>
</svg>
