<svg width="28" height="28" viewBox="0 0 28 28" fill="none" xmlns="http://www.w3.org/2000/svg">
<path d="M16.332 6.99935C16.332 5.71602 15.282 4.66602 13.9987 4.66602C12.7154 4.66602 11.6654 5.71602 11.6654 6.99935C11.6654 8.28268 12.7154 9.33268 13.9987 9.33268C15.282 9.33268 16.332 8.28268 16.332 6.99935ZM16.332 20.9993C16.332 19.716 15.282 18.666 13.9987 18.666C12.7154 18.666 11.6654 19.716 11.6654 20.9993C11.6654 22.2827 12.7154 23.3327 13.9987 23.3327C15.282 23.3327 16.332 22.2827 16.332 20.9993ZM16.332 13.9993C16.332 12.716 15.282 11.666 13.9987 11.666C12.7154 11.666 11.6654 12.716 11.6654 13.9993C11.6654 15.2827 12.7154 16.3327 13.9987 16.3327C15.282 16.3327 16.332 15.2827 16.332 13.9993Z" fill="#D9D9D9"/>
</svg>
