<svg width="124" height="32" viewBox="0 0 124 32" fill="none" xmlns="http://www.w3.org/2000/svg">
<path d="M2 18.0672V21.4445C2 21.7556 2.24441 22 2.55548 22H5.93279C6.07721 22 6.22164 21.9445 6.32162 21.8334L18.4533 9.71282L14.2872 5.54673L2.16664 17.6673C2.05555 17.7784 2 17.9117 2 18.0672ZM21.675 6.49104C22.1083 6.05777 22.1083 5.35787 21.675 4.92459L19.0754 2.32495C18.6421 1.89168 17.9422 1.89168 17.509 2.32495L15.4759 4.35801L19.642 8.52409L21.675 6.49104Z" fill="#172366"/>
<path d="M45.1602 3.82422H32.9922V5.54297H42.9922C42.9824 6.58789 42.9336 7.83789 42.6113 9.44922H31V11.168H47.1328V9.44922H44.7988C45.1699 7.61328 45.1699 6.14844 45.1602 4.99609V3.82422ZM32.8555 14.2734H42.9727V15.6992H32.875V20.5625H45.5898V18.8633H35.043V17.3594H45.1406V12.5742H32.8555V14.2734ZM59.3594 6.14844V5.93359H63.0312V4.19531H53.4414V5.93359H57.1719V6.14844C57.1719 8.46289 55.6777 10.748 52.8359 11.6953L53.9883 13.375C56.0488 12.6719 57.5137 11.2363 58.2949 9.42969C59.0664 11.0801 60.4629 12.3984 62.4453 13.0625L63.5391 11.3828C60.7559 10.4648 59.3594 8.32617 59.3594 6.14844ZM55.1992 16.2852H64.7891V20.7383H66.957V14.5469H55.1992V16.2852ZM64.7891 13.7266H66.957V9.3125H69.418V7.49609H66.957V3.08203H64.7891V13.7266ZM76.7812 5.62109V4.03906H74.5938V5.71875C74.584 8.26758 73.1191 10.6211 70.1992 11.5781L71.3516 13.3359C73.4902 12.584 74.9648 11.0703 75.7461 9.14648C76.498 10.8164 77.8457 12.1055 79.7695 12.7891L80.9414 11.0898C78.1777 10.2207 76.7715 8.02344 76.7812 5.62109ZM73.1289 17.3398C73.1094 19.4883 75.4043 20.7188 79.125 20.7188C82.8652 20.7188 85.1504 19.4883 85.1602 17.3398C85.1504 15.1914 82.8652 13.9316 79.125 13.9414C75.4043 13.9316 73.1094 15.1914 73.1289 17.3398ZM75.2773 17.3398C75.2676 16.2266 76.6738 15.6309 79.125 15.6211C81.5957 15.6309 82.9922 16.2266 82.9922 17.3398C82.9922 18.4141 81.5957 19.0098 79.125 19.0195C76.6738 19.0098 75.2676 18.4141 75.2773 17.3398ZM79.418 8.27734H82.9336V13.4727H85.1016V3.08203H82.9336V6.5H79.418V8.27734ZM101.43 3.08203H99.2812V20.7383H101.43V11.9102H104.145V10.1133H101.43V3.08203ZM87.5039 7.53516H97.9141V5.79688H93.8516V3.33594H91.6836V5.79688H87.5039V7.53516ZM88.3242 12.8477C88.3047 15.2793 90.1992 16.9883 92.7773 16.9883C95.3164 16.9883 97.2012 15.2793 97.2109 12.8477C97.2012 10.4062 95.3164 8.67773 92.7773 8.6875C90.1992 8.67773 88.3047 10.4062 88.3242 12.8477ZM90.3945 12.8477C90.3848 11.4121 91.3906 10.4648 92.7773 10.4648C94.1348 10.4648 95.1211 11.4121 95.1406 12.8477C95.1211 14.2832 94.1348 15.2012 92.7773 15.1914C91.3906 15.2012 90.3848 14.2832 90.3945 12.8477ZM119.633 3.08203H117.445V20.7383H119.633V3.08203ZM105.004 15.875L106.137 17.6133C112.318 14.6738 114.359 10.2109 114.359 4.95703H105.902V6.67578H112.152C111.762 10.6895 109.633 13.6777 105.004 15.875Z" fill="#172366"/>
<line x1="1" y1="31" x2="123" y2="31" stroke="#172366" stroke-width="2" stroke-linecap="round"/>
</svg>
