<svg width="20" height="20" viewBox="0 0 20 20" fill="none" xmlns="http://www.w3.org/2000/svg">
<path d="M14.6755 12.9121H13.7508L13.423 12.5962C14.7088 11.0994 15.3643 9.16282 15.2519 7.1932C15.1395 5.22358 14.2678 3.37411 12.82 2.03311C11.3722 0.692114 9.46079 -0.0360982 7.48717 0.00137794C5.51355 0.0388541 3.63122 0.839103 2.23541 2.2341C0.839594 3.62909 0.0388768 5.51032 0.00137874 7.48279C-0.0361194 9.45525 0.692519 11.3655 2.0343 12.8125C3.37609 14.2595 5.22664 15.1306 7.19741 15.243C9.16818 15.3554 11.1059 14.7002 12.6036 13.4152L12.9197 13.7427V14.667L17.8946 19.639C18.0091 19.7534 18.1451 19.8442 18.2947 19.9062C18.4444 19.9681 18.6047 20 18.7667 20C18.9287 20 19.089 19.9681 19.2387 19.9062C19.3883 19.8442 19.5242 19.7534 19.6388 19.639C19.7533 19.5245 19.8441 19.3886 19.9061 19.2391C19.9681 19.0896 20 18.9293 20 18.7674C20 18.6055 19.9681 18.4453 19.9061 18.2957C19.8441 18.1462 19.7533 18.0103 19.6388 17.8958L14.6755 12.9121ZM7.65209 12.9121C6.61026 12.9121 5.59182 12.6034 4.72557 12.0249C3.85932 11.4464 3.18416 10.6242 2.78547 9.66225C2.38678 8.70029 2.28246 7.64177 2.48571 6.62056C2.68897 5.59934 3.19065 4.6613 3.92734 3.92504C4.66402 3.18879 5.60262 2.68739 6.62443 2.48426C7.64624 2.28113 8.70538 2.38538 9.6679 2.78384C10.6304 3.1823 11.4531 3.85706 12.0319 4.72281C12.6107 5.58855 12.9197 6.60639 12.9197 7.64761C12.9212 8.33939 12.786 9.02466 12.5218 9.66407C12.2577 10.3035 11.8697 10.8845 11.3803 11.3736C10.8908 11.8628 10.3095 12.2505 9.66973 12.5145C9.02994 12.7785 8.34427 12.9137 7.65209 12.9121Z" fill="#888888"/>
</svg>
